<svg xmlns="http://www.w3.org/2000/svg" xmlns:xlink="http://www.w3.org/1999/xlink"><defs><symbol fill="none" viewBox="0 0 13 12" id="icon-arrow"><path stroke="currentColor" stroke-linecap="round" stroke-linejoin="round" stroke-width="1.8" d="M11.563 6H1.437m10.126 0-4.5 4.5m4.5-4.5-4.5-4.5" /></symbol><symbol fill="none" viewBox="0 0 45 44" id="icon-arrow-circle"><g stroke="currentColor" stroke-linecap="round" stroke-linejoin="round" stroke-width="2.75" clip-path="url(#icon-arrow-circle_a)"><path d="M6 22c0 9.113 7.387 16.5 16.5 16.5S39 31.113 39 22 31.613 5.5 22.5 5.5 6 12.887 6 22ZM29.833 22 22.5 14.667M29.833 22H15.167M22.5 29.333 29.833 22" /></g><defs></defs></symbol><clipPath id="icon-arrow-circle_a"><path fill="currentColor" d="M44.5 0v44H.5V0z" /></clipPath><symbol fill="none" viewBox="0 0 24 24" id="icon-burger"><rect width="20" height="2" x="2" y="5" fill="currentColor" rx="1" /><rect width="20" height="2" x="2" y="11" fill="currentColor" rx="1" /><rect width="20" height="2" x="2" y="17" fill="currentColor" rx="1" /></symbol><symbol fill="none" viewBox="0 0 14 12" id="icon-chat"><path stroke="currentColor" d="m2.397 8.805.018-.188-.112-.153a4.688 4.688 0 0 1-.927-2.78C1.376 2.883 3.98.5 7.315.5c3.334 0 5.938 2.383 5.938 5.184 0 2.802-2.604 5.184-5.938 5.184a6.606 6.606 0 0 1-2.444-.459l-.222-.088-.208.118c-.88.498-1.994.79-2.7.939.112-.209.208-.44.29-.686.178-.533.3-1.172.366-1.887Z" /></symbol><symbol fill="none" viewBox="0 0 24 24" id="icon-close"><path fill="currentColor" fill-rule="evenodd" d="m13.414 12 4.293-4.293a.999.999 0 1 0-1.414-1.414L12 10.586 7.707 6.293a.999.999 0 1 0-1.414 1.414L10.586 12l-4.293 4.293a.999.999 0 1 0 1.414 1.414L12 13.414l4.293 4.293a.997.997 0 0 0 1.414 0 .999.999 0 0 0 0-1.414L13.414 12Z" clip-rule="evenodd" /></symbol><symbol fill="none" viewBox="0 0 24 24" id="icon-email"><path stroke="currentColor" stroke-linecap="round" stroke-linejoin="round" stroke-width="2" d="m4 7 6.2 4.65a3 3 0 0 0 3.6 0L20 7" /><rect width="18" height="14" x="3" y="5" stroke="currentColor" stroke-linecap="round" stroke-width="2" rx="2" /></symbol><symbol fill="none" viewBox="0 0 64 64" id="icon-favorite"><path stroke="currentColor" stroke-linecap="round" stroke-linejoin="round" stroke-width="4" d="m30.051 45.607-12.2 9.133a3.892 3.892 0 0 1-6.223-3.114v-36.32a7.782 7.782 0 0 1 7.781-7.782H45.35a7.782 7.782 0 0 1 7.781 7.782v36.319a3.89 3.89 0 0 1-6.223 3.114l-12.193-9.132a3.89 3.89 0 0 0-4.664 0v0Z" /></symbol><symbol viewBox="0 0 20 20" id="icon-github"><path fill="currentColor" fill-rule="evenodd" d="M10 0c5.523 0 10 4.59 10 10.253 0 4.529-2.862 8.371-6.833 9.728-.507.101-.687-.219-.687-.492 0-.338.012-1.442.012-2.814 0-.956-.32-1.58-.679-1.898 2.227-.254 4.567-1.121 4.567-5.059 0-1.12-.388-2.034-1.03-2.752.104-.259.447-1.302-.098-2.714 0 0-.838-.275-2.747 1.051A9.396 9.396 0 0 0 10 4.958a9.375 9.375 0 0 0-2.503.345C5.586 3.977 4.746 4.252 4.746 4.252c-.543 1.412-.2 2.455-.097 2.714-.639.718-1.03 1.632-1.03 2.752 0 3.928 2.335 4.808 4.556 5.067-.286.256-.545.708-.635 1.371-.57.262-2.018.715-2.91-.852 0 0-.529-.985-1.533-1.057 0 0-.975-.013-.068.623 0 0 .655.315 1.11 1.5 0 0 .587 1.83 3.369 1.21.005.857.014 1.665.014 1.909 0 .271-.184.588-.683.493C2.865 18.627 0 14.783 0 10.253 0 4.59 4.478 0 10 0" /></symbol><symbol fill="none" viewBox="0 0 13 12" id="icon-like"><path stroke="currentColor" d="m5.887 10.57-.01-.011-.012-.01C4.182 9.089 2.83 7.9 1.896 6.784.966 5.674.5 4.696.5 3.664.5 1.99 1.812.688 3.541.688A3.4 3.4 0 0 1 6.06 1.842l.378.44.379-.44A3.4 3.4 0 0 1 9.335.69c1.73 0 3.041 1.301 3.041 2.974 0 1.033-.466 2.012-1.396 3.121C10.045 7.9 8.694 9.09 7.012 10.55l-.012.01-.01.01-.552.541-.551-.54Z" /></symbol><symbol fill="none" viewBox="0 0 24 24" id="icon-posts"><path stroke="currentColor" stroke-width="1.5" d="M5 11.5c0-1.886 0-2.828.586-3.414C6.172 7.5 7.114 7.5 9 7.5h6c1.886 0 2.828 0 3.414.586C19 8.672 19 9.614 19 11.5v1c0 1.886 0 2.828-.586 3.414-.586.586-1.528.586-3.414.586H9c-1.886 0-2.828 0-3.414-.586C5 15.328 5 14.386 5 12.5v-1Z" /><path stroke="currentColor" stroke-linecap="round" stroke-width="1.5" d="M19 2v.5A2.5 2.5 0 0 1 16.5 5h-9A2.5 2.5 0 0 1 5 2.5V2M19 22v-.5a2.5 2.5 0 0 0-2.5-2.5h-9A2.5 2.5 0 0 0 5 21.5v.5" /></symbol><symbol viewBox="0 0 24 24" id="icon-star"><g clip-path="url(#icon-star_a)"><path d="M17.777 14.5V20L15.5 19l-2.602-1-2.398 1-3 1v-2.5l.5-3L6.5 13 4 10.5l3.5-2H10l1-2L12.5 4 15 6.5l1 2 2 1h3L20 12l-2.223 2.5Z" /><path fill="currentColor" d="m21.924 8.699-5.734-.832-2.564-5.171c-.459-.922-1.79-.934-2.252 0L8.81 7.867l-5.734.832c-1.029.148-1.441 1.41-.695 2.132l4.149 4.023-.982 5.683c-.176 1.027.911 1.797 1.822 1.317l5.13-2.684 5.13 2.683c.91.477 1.998-.289 1.822-1.316l-.982-5.683 4.15-4.023c.745-.722.333-1.984-.696-2.132Zm-5.475 5.5.93 5.405-4.879-2.55-4.88 2.55.931-5.406-3.949-3.827 5.457-.79 2.441-4.92 2.441 4.92 5.457.79-3.95 3.827Z" /></g><defs></defs></symbol><clipPath id="icon-star_a"><path fill="#fff" d="M2 2h21v20H2z" /></clipPath><symbol fill="none" viewBox="-1 -1 16 10" id="icon-views"><path fill="currentColor" d="m14.102 3.51-.828.562.828-.562Zm0 .98-.828-.562.828.562ZM1.684 4.072A6.992 6.992 0 0 1 7.48 1v-2A8.992 8.992 0 0 0 .03 2.948l1.654 1.124ZM7.48 1a6.992 6.992 0 0 1 5.795 3.072l1.655-1.124A8.992 8.992 0 0 0 7.479-1v2Zm5.795 2.928A6.992 6.992 0 0 1 7.48 7v2c3.1 0 5.833-1.567 7.45-3.948l-1.655-1.124ZM7.48 7a6.992 6.992 0 0 1-5.795-3.072L.03 5.052A8.992 8.992 0 0 0 7.48 9V7Zm5.795-2.928a.13.13 0 0 1 0-.144l1.655 1.124a1.871 1.871 0 0 0 0-2.104l-1.655 1.124ZM.03 2.948a1.87 1.87 0 0 0 0 2.104l1.654-1.124a.13.13 0 0 1 0 .144L.03 2.948Z" /><circle cx="7.479" cy="4" r="3.5" stroke="currentColor" /><circle cx="7.479" cy="4" r="1" fill="currentColor" /></symbol></defs></svg>