<svg width="14" height="12" viewBox="0 0 14 12" fill="none" xmlns="http://www.w3.org/2000/svg">
<path d="M2.39749 8.80462L2.41483 8.6165L2.30344 8.46392C1.69362 7.62859 1.37636 6.66983 1.37636 5.68421C1.37636 2.88275 3.98032 0.5 7.31453 0.5C10.6487 0.5 13.2527 2.88275 13.2527 5.68421C13.2527 8.48567 10.6487 10.8684 7.31453 10.8684C6.46119 10.8684 5.64043 10.7136 4.87108 10.4092L4.64883 10.3212L4.44081 10.439C3.56046 10.9373 2.44687 11.2296 1.74111 11.378C1.85335 11.1691 1.94944 10.9381 2.03133 10.6923C2.20907 10.1587 2.33159 9.5197 2.39749 8.80462Z" stroke="currentColor"/>
</svg>
