<svg width="13" height="12" viewBox="0 0 13 12" fill="none" xmlns="http://www.w3.org/2000/svg">
<path d="M5.88698 10.5694L5.87607 10.5587L5.86454 10.5487C4.18208 9.08862 2.83126 7.90013 1.89623 6.78413C0.966606 5.67459 0.5 4.69637 0.5 3.66314C0.5 1.99039 1.81221 0.689453 3.541 0.689453C4.48958 0.689453 5.44603 1.13104 6.05956 1.84234L6.43818 2.28129L6.81679 1.84234C7.43032 1.13104 8.38677 0.689453 9.33535 0.689453C11.0641 0.689453 12.3764 1.99039 12.3764 3.66314C12.3764 4.69637 11.9097 5.67459 10.9801 6.78413C10.0451 7.90013 8.69427 9.08862 7.01181 10.5487L7.00028 10.5587L6.98938 10.5694L6.43818 11.1101L5.88698 10.5694Z" stroke="currentColor"/>
</svg>
