<svg width="24" height="24" viewBox="0 0 24 24" xmlns="http://www.w3.org/2000/svg">
<g clip-path="url(#clip0_13828_38237)">
<path d="M17.7766 14.4999V16.4999V20L15.5 18.9999L12.8976 17.9999L10.5 18.9999L7.5 20V17.4999L8 14.4999L6.5 12.9999L4 10.5L7.5 8.49986H10L11 6.49986L12.5 4L15 6.49986L16 8.49986L18 9.49986L21 9.5L20 12L17.7766 14.4999Z"/>
<path d="M21.9245 8.69889L16.1897 7.86696L13.6265 2.69572C13.1673 1.77396 11.8366 1.76224 11.3735 2.69572L8.81029 7.86696L3.07553 8.69889C2.04712 8.84731 1.63497 10.1089 2.38077 10.8314L6.52973 14.8544L5.54842 20.5373C5.37179 21.5645 6.45908 22.3339 7.36973 21.8535L12.5 19.1702L17.6303 21.8535C18.5409 22.33 19.6282 21.5645 19.4516 20.5373L18.4703 14.8544L22.6192 10.8314C23.365 10.1089 22.9529 8.84731 21.9245 8.69889ZM16.4488 14.1982L17.3791 19.6038L12.5 17.0533L7.62094 19.6038L8.55122 14.1982L4.60244 10.3706L10.0585 9.58159L12.5 4.66032L14.9415 9.58159L20.3976 10.3706L16.4488 14.1982Z" fill="currentColor"/>
</g>
<defs>
<clipPath id="clip0_13828_38237">
<rect width="21" height="20" fill="white" transform="translate(2 2)"/>
</clipPath>
</defs>
</svg>




