<svg width="14" height="8" viewBox="-1 -1 16 10" fill="none" xmlns="http://www.w3.org/2000/svg">
<path d="M14.1017 3.51014L13.2745 4.07206L14.1017 3.51014ZM14.1017 4.48987L13.2745 3.92794L14.1017 4.48987ZM1.68446 4.07206C2.94538 2.21591 5.0706 1 7.47949 1V-1C4.38024 -1 1.6474 0.567426 0.0300842 2.94821L1.68446 4.07206ZM7.47949 1C9.88838 1 12.0136 2.21591 13.2745 4.07206L14.9289 2.94821C13.3116 0.567429 10.5787 -1 7.47949 -1V1ZM13.2745 3.92794C12.0136 5.78409 9.88838 7 7.47949 7V9C10.5787 9 13.3116 7.43257 14.9289 5.05179L13.2745 3.92794ZM7.47949 7C5.0706 7 2.94538 5.78409 1.68446 3.92794L0.0300842 5.05179C1.6474 7.43257 4.38024 9 7.47949 9V7ZM13.2745 4.07206C13.2452 4.0289 13.2452 3.97111 13.2745 3.92794L14.9289 5.05179C15.3604 4.41659 15.3604 3.58342 14.9289 2.94821L13.2745 4.07206ZM0.0300842 2.94821C-0.401426 3.58342 -0.401426 4.41658 0.0300842 5.05179L1.68446 3.92794C1.71378 3.9711 1.71378 4.0289 1.68446 4.07206L0.0300842 2.94821Z" fill="currentColor"/>
<circle cx="7.4794" cy="4" r="3.5" stroke="currentColor"/>
<circle cx="7.4794" cy="4" r="1" fill="currentColor"/>
</svg>
