<svg width="125" height="44" viewBox="0 0 125 44" fill="none" xmlns="http://www.w3.org/2000/svg">
<g clip-path="url(#clip0_273_332)">
<path d="M14.6667 22H7.33333C6.32081 22 5.5 22.8208 5.5 23.8333V34.8333C5.5 35.8459 6.32081 36.6667 7.33333 36.6667H14.6667C15.6792 36.6667 16.5 35.8459 16.5 34.8333V23.8333C16.5 22.8208 15.6792 22 14.6667 22Z" stroke="url(#paint0_linear_273_332)" stroke-width="2.75" stroke-linecap="round" stroke-linejoin="round"/>
<path d="M25.6667 14.6666H18.3333C17.3208 14.6666 16.5 15.4874 16.5 16.5V34.8333C16.5 35.8458 17.3208 36.6666 18.3333 36.6666H25.6667C26.6792 36.6666 27.5 35.8458 27.5 34.8333V16.5C27.5 15.4874 26.6792 14.6666 25.6667 14.6666Z" stroke="url(#paint1_linear_273_332)" stroke-width="2.75" stroke-linecap="round" stroke-linejoin="round"/>
<path d="M36.6667 7.33337H29.3333C28.3208 7.33337 27.5 8.15419 27.5 9.16671V34.8334C27.5 35.8459 28.3208 36.6667 29.3333 36.6667H36.6667C37.6792 36.6667 38.5 35.8459 38.5 34.8334V9.16671C38.5 8.15419 37.6792 7.33337 36.6667 7.33337Z" stroke="url(#paint2_linear_273_332)" stroke-width="2.75" stroke-linecap="round" stroke-linejoin="round"/>
<path d="M7.33337 36.6666H33" stroke="url(#paint3_linear_273_332)" stroke-width="2.75" stroke-linecap="round" stroke-linejoin="round"/>
</g>
<path d="M50.5771 11.1719V32.5H46.1973V11.1719H50.5771ZM62.1934 16.6504V19.6387H52.9648V16.6504H62.1934ZM55.25 12.7393H59.4688V27.7246C59.4688 28.1836 59.5273 28.5352 59.6445 28.7793C59.7715 29.0234 59.957 29.1943 60.2012 29.292C60.4453 29.3799 60.7529 29.4238 61.124 29.4238C61.3877 29.4238 61.6221 29.4141 61.8271 29.3945C62.042 29.3652 62.2227 29.3359 62.3691 29.3066L62.3838 32.4121C62.0225 32.5293 61.6318 32.6221 61.2119 32.6904C60.792 32.7588 60.3281 32.793 59.8203 32.793C58.8926 32.793 58.082 32.6416 57.3887 32.3389C56.7051 32.0264 56.1777 31.5283 55.8066 30.8447C55.4355 30.1611 55.25 29.2627 55.25 28.1494V12.7393ZM73.209 23.1396H67.7305L67.7012 20.1221H72.3008C73.1113 20.1221 73.7754 20.0195 74.293 19.8145C74.8105 19.5996 75.1963 19.292 75.4502 18.8916C75.7139 18.4814 75.8457 17.9834 75.8457 17.3975C75.8457 16.7334 75.7188 16.1963 75.4648 15.7861C75.2207 15.376 74.835 15.0781 74.3076 14.8926C73.79 14.707 73.1211 14.6143 72.3008 14.6143H69.2539V32.5H64.8594V11.1719H72.3008C73.541 11.1719 74.6494 11.2891 75.626 11.5234C76.6123 11.7578 77.4473 12.1143 78.1309 12.5928C78.8145 13.0713 79.3369 13.6768 79.6982 14.4092C80.0596 15.1318 80.2402 15.9912 80.2402 16.9873C80.2402 17.8662 80.04 18.6768 79.6396 19.4189C79.249 20.1611 78.6289 20.7666 77.7793 21.2354C76.9395 21.7041 75.8408 21.9629 74.4834 22.0117L73.209 23.1396ZM73.0186 32.5H66.5293L68.2432 29.0723H73.0186C73.79 29.0723 74.4199 28.9502 74.9082 28.7061C75.3965 28.4521 75.7578 28.1104 75.9922 27.6807C76.2266 27.251 76.3438 26.7578 76.3438 26.2012C76.3438 25.5762 76.2363 25.0342 76.0215 24.5752C75.8164 24.1162 75.4844 23.7646 75.0254 23.5205C74.5664 23.2666 73.9609 23.1396 73.209 23.1396H68.9756L69.0049 20.1221H74.2783L75.2891 21.3086C76.5879 21.2891 77.6328 21.5186 78.4238 21.9971C79.2246 22.4658 79.8057 23.0762 80.167 23.8281C80.5381 24.5801 80.7236 25.3857 80.7236 26.2451C80.7236 27.6123 80.4258 28.7646 79.8301 29.7021C79.2344 30.6299 78.3604 31.3281 77.208 31.7969C76.0654 32.2656 74.6689 32.5 73.0186 32.5ZM88.209 10V32.5H83.9756V10H88.209ZM91.0215 24.7363V24.4287C91.0215 23.2666 91.1875 22.1973 91.5195 21.2207C91.8516 20.2344 92.335 19.3799 92.9697 18.6572C93.6045 17.9346 94.3857 17.373 95.3135 16.9727C96.2412 16.5625 97.3057 16.3574 98.5068 16.3574C99.708 16.3574 100.777 16.5625 101.715 16.9727C102.652 17.373 103.438 17.9346 104.073 18.6572C104.718 19.3799 105.206 20.2344 105.538 21.2207C105.87 22.1973 106.036 23.2666 106.036 24.4287V24.7363C106.036 25.8887 105.87 26.958 105.538 27.9443C105.206 28.9209 104.718 29.7754 104.073 30.5078C103.438 31.2305 102.657 31.792 101.729 32.1924C100.802 32.5928 99.7373 32.793 98.5361 32.793C97.335 32.793 96.2656 32.5928 95.3281 32.1924C94.4004 31.792 93.6143 31.2305 92.9697 30.5078C92.335 29.7754 91.8516 28.9209 91.5195 27.9443C91.1875 26.958 91.0215 25.8887 91.0215 24.7363ZM95.2402 24.4287V24.7363C95.2402 25.4004 95.2988 26.0205 95.416 26.5967C95.5332 27.1729 95.7188 27.6807 95.9727 28.1201C96.2363 28.5498 96.5781 28.8867 96.998 29.1309C97.418 29.375 97.9307 29.4971 98.5361 29.4971C99.1221 29.4971 99.625 29.375 100.045 29.1309C100.465 28.8867 100.802 28.5498 101.056 28.1201C101.31 27.6807 101.495 27.1729 101.612 26.5967C101.739 26.0205 101.803 25.4004 101.803 24.7363V24.4287C101.803 23.7842 101.739 23.1787 101.612 22.6123C101.495 22.0361 101.305 21.5283 101.041 21.0889C100.787 20.6396 100.45 20.2881 100.03 20.0342C99.6104 19.7803 99.1025 19.6533 98.5068 19.6533C97.9111 19.6533 97.4033 19.7803 96.9834 20.0342C96.5732 20.2881 96.2363 20.6396 95.9727 21.0889C95.7188 21.5283 95.5332 22.0361 95.416 22.6123C95.2988 23.1787 95.2402 23.7842 95.2402 24.4287ZM118.663 16.6504H122.486V31.9727C122.486 33.418 122.164 34.6436 121.52 35.6494C120.885 36.665 119.996 37.4316 118.854 37.9492C117.711 38.4766 116.383 38.7402 114.869 38.7402C114.205 38.7402 113.502 38.6523 112.76 38.4766C112.027 38.3008 111.324 38.0273 110.65 37.6562C109.986 37.2852 109.43 36.8164 108.98 36.25L110.841 33.7598C111.329 34.3262 111.896 34.7656 112.54 35.0781C113.185 35.4004 113.897 35.5615 114.679 35.5615C115.44 35.5615 116.085 35.4199 116.612 35.1367C117.14 34.8633 117.545 34.458 117.828 33.9209C118.111 33.3936 118.253 32.7539 118.253 32.002V20.3125L118.663 16.6504ZM107.999 24.7656V24.458C107.999 23.2471 108.146 22.1484 108.438 21.1621C108.741 20.166 109.166 19.3115 109.713 18.5986C110.27 17.8857 110.943 17.334 111.734 16.9434C112.525 16.5527 113.419 16.3574 114.415 16.3574C115.47 16.3574 116.354 16.5527 117.066 16.9434C117.779 17.334 118.365 17.8906 118.824 18.6133C119.283 19.3262 119.64 20.1709 119.894 21.1475C120.157 22.1143 120.362 23.1738 120.509 24.3262V25C120.362 26.1035 120.143 27.1289 119.85 28.0762C119.557 29.0234 119.171 29.8535 118.692 30.5664C118.214 31.2695 117.618 31.8164 116.905 32.207C116.202 32.5977 115.362 32.793 114.386 32.793C113.409 32.793 112.525 32.5928 111.734 32.1924C110.953 31.792 110.284 31.2305 109.728 30.5078C109.171 29.7852 108.741 28.9355 108.438 27.959C108.146 26.9824 107.999 25.918 107.999 24.7656ZM112.218 24.458V24.7656C112.218 25.4199 112.281 26.0303 112.408 26.5967C112.535 27.1631 112.73 27.666 112.994 28.1055C113.268 28.5352 113.604 28.8721 114.005 29.1162C114.415 29.3506 114.898 29.4678 115.455 29.4678C116.227 29.4678 116.856 29.3066 117.345 28.9844C117.833 28.6523 118.199 28.1982 118.443 27.6221C118.688 27.0459 118.829 26.3818 118.868 25.6299V23.7109C118.849 23.0957 118.766 22.5439 118.619 22.0557C118.473 21.5576 118.268 21.1328 118.004 20.7812C117.74 20.4297 117.398 20.1562 116.979 19.9609C116.559 19.7656 116.061 19.668 115.484 19.668C114.928 19.668 114.444 19.7949 114.034 20.0488C113.634 20.293 113.297 20.6299 113.023 21.0596C112.76 21.4893 112.56 21.9971 112.423 22.583C112.286 23.1592 112.218 23.7842 112.218 24.458Z" fill="url(#paint4_linear_273_332)"/>
<defs>
<linearGradient id="paint0_linear_273_332" x1="11" y1="22" x2="5.5" y2="22" gradientUnits="userSpaceOnUse">
<stop stop-color="#22D3EE"/>
<stop offset="1" stop-color="#0EA5E9"/>
</linearGradient>
<linearGradient id="paint1_linear_273_332" x1="22" y1="14.6666" x2="16.5" y2="14.6666" gradientUnits="userSpaceOnUse">
<stop stop-color="#22D3EE"/>
<stop offset="1" stop-color="#0EA5E9"/>
</linearGradient>
<linearGradient id="paint2_linear_273_332" x1="33" y1="7.33337" x2="27.5" y2="7.33337" gradientUnits="userSpaceOnUse">
<stop stop-color="#22D3EE"/>
<stop offset="1" stop-color="#0EA5E9"/>
</linearGradient>
<linearGradient id="paint3_linear_273_332" x1="20.1667" y1="36.6666" x2="7.33337" y2="36.6666" gradientUnits="userSpaceOnUse">
<stop stop-color="#22D3EE"/>
<stop offset="1" stop-color="#0EA5E9"/>
</linearGradient>
<linearGradient id="paint4_linear_273_332" x1="84.5" y1="4.5" x2="44" y2="4.5" gradientUnits="userSpaceOnUse">
<stop stop-color="#22D3EE"/>
<stop offset="1" stop-color="#0EA5E9"/>
</linearGradient>
<clipPath id="clip0_273_332">
<rect width="44" height="44" fill="white"/>
</clipPath>
</defs>
</svg>
